<svg width="173" height="57" viewBox="0 0 173 57" fill="none" xmlns="http://www.w3.org/2000/svg">
<path d="M2.256 23V6.2H9.6C11.424 6.2 13.024 6.552 14.4 7.256C15.776 7.96 16.848 8.936 17.616 10.184C18.384 11.432 18.768 12.904 18.768 14.6C18.768 16.28 18.384 17.752 17.616 19.016C16.848 20.264 15.776 21.24 14.4 21.944C13.024 22.648 11.424 23 9.6 23H2.256ZM5.376 20.36H9.456C10.72 20.36 11.808 20.12 12.72 19.64C13.648 19.16 14.36 18.488 14.856 17.624C15.368 16.76 15.624 15.752 15.624 14.6C15.624 13.432 15.368 12.424 14.856 11.576C14.36 10.712 13.648 10.04 12.72 9.56C11.808 9.08 10.72 8.84 9.456 8.84H5.376V20.36ZM24.9641 13.184H33.3161V15.752H24.9641V13.184ZM25.2041 20.384H34.6841V23H22.0841V6.2H34.3481V8.816H25.2041V20.384ZM42.8959 23L35.5519 6.2H38.9359L45.4879 21.392H43.5439L50.1679 6.2H53.2879L45.9679 23H42.8959ZM55.1936 23.168C54.6496 23.168 54.1856 22.984 53.8016 22.616C53.4176 22.232 53.2256 21.752 53.2256 21.176C53.2256 20.568 53.4176 20.088 53.8016 19.736C54.1856 19.368 54.6496 19.184 55.1936 19.184C55.7376 19.184 56.2016 19.368 56.5856 19.736C56.9696 20.088 57.1616 20.568 57.1616 21.176C57.1616 21.752 56.9696 22.232 56.5856 22.616C56.2016 22.984 55.7376 23.168 55.1936 23.168ZM65.8234 23.24C64.5114 23.24 63.2554 23.056 62.0554 22.688C60.8554 22.304 59.9034 21.816 59.1994 21.224L60.2794 18.8C60.9514 19.328 61.7834 19.768 62.7754 20.12C63.7674 20.472 64.7834 20.648 65.8234 20.648C66.7034 20.648 67.4154 20.552 67.9594 20.36C68.5034 20.168 68.9034 19.912 69.1594 19.592C69.4154 19.256 69.5434 18.88 69.5434 18.464C69.5434 17.952 69.3594 17.544 68.9914 17.24C68.6234 16.92 68.1434 16.672 67.5514 16.496C66.9754 16.304 66.3274 16.128 65.6074 15.968C64.9034 15.808 64.1914 15.624 63.4714 15.416C62.7674 15.192 62.1194 14.912 61.5274 14.576C60.9514 14.224 60.4794 13.76 60.1114 13.184C59.7434 12.608 59.5594 11.872 59.5594 10.976C59.5594 10.064 59.7994 9.232 60.2794 8.48C60.7754 7.712 61.5194 7.104 62.5114 6.656C63.5194 6.192 64.7914 5.96 66.3274 5.96C67.3354 5.96 68.3354 6.088 69.3274 6.344C70.3194 6.6 71.1834 6.968 71.9194 7.448L70.9354 9.872C70.1834 9.424 69.4074 9.096 68.6074 8.888C67.8074 8.664 67.0394 8.552 66.3034 8.552C65.4394 8.552 64.7354 8.656 64.1914 8.864C63.6634 9.072 63.2714 9.344 63.0154 9.68C62.7754 10.016 62.6554 10.4 62.6554 10.832C62.6554 11.344 62.8314 11.76 63.1834 12.08C63.5514 12.384 64.0234 12.624 64.5994 12.8C65.1914 12.976 65.8474 13.152 66.5674 13.328C67.2874 13.488 67.9994 13.672 68.7034 13.88C69.4234 14.088 70.0714 14.36 70.6474 14.696C71.2394 15.032 71.7114 15.488 72.0634 16.064C72.4314 16.64 72.6154 17.368 72.6154 18.248C72.6154 19.144 72.3674 19.976 71.8714 20.744C71.3914 21.496 70.6474 22.104 69.6394 22.568C68.6314 23.016 67.3594 23.24 65.8234 23.24ZM75.7091 23V6.2H82.6211C84.1091 6.2 85.3811 6.44 86.4371 6.92C87.5091 7.4 88.3331 8.088 88.9091 8.984C89.4851 9.88 89.7731 10.944 89.7731 12.176C89.7731 13.408 89.4851 14.472 88.9091 15.368C88.3331 16.264 87.5091 16.952 86.4371 17.432C85.3811 17.912 84.1091 18.152 82.6211 18.152H77.4371L78.8291 16.688V23H75.7091ZM78.8291 17.024L77.4371 15.512H82.4771C83.8531 15.512 84.8851 15.224 85.5731 14.648C86.2771 14.056 86.6291 13.232 86.6291 12.176C86.6291 11.104 86.2771 10.28 85.5731 9.704C84.8851 9.128 83.8531 8.84 82.4771 8.84H77.4371L78.8291 7.304V17.024ZM100.995 23.24C99.6832 23.24 98.4752 23.024 97.3712 22.592C96.2672 22.16 95.3072 21.56 94.4912 20.792C93.6752 20.008 93.0432 19.096 92.5952 18.056C92.1472 17 91.9232 15.848 91.9232 14.6C91.9232 13.352 92.1472 12.208 92.5952 11.168C93.0432 10.112 93.6752 9.2 94.4912 8.432C95.3072 7.648 96.2672 7.04 97.3712 6.608C98.4752 6.176 99.6752 5.96 100.971 5.96C102.283 5.96 103.483 6.176 104.571 6.608C105.675 7.04 106.635 7.648 107.451 8.432C108.267 9.2 108.899 10.112 109.347 11.168C109.795 12.208 110.019 13.352 110.019 14.6C110.019 15.848 109.795 17 109.347 18.056C108.899 19.112 108.267 20.024 107.451 20.792C106.635 21.56 105.675 22.16 104.571 22.592C103.483 23.024 102.291 23.24 100.995 23.24ZM100.971 20.504C101.819 20.504 102.603 20.36 103.323 20.072C104.043 19.784 104.667 19.376 105.195 18.848C105.723 18.304 106.131 17.68 106.419 16.976C106.723 16.256 106.875 15.464 106.875 14.6C106.875 13.736 106.723 12.952 106.419 12.248C106.131 11.528 105.723 10.904 105.195 10.376C104.667 9.832 104.043 9.416 103.323 9.128C102.603 8.84 101.819 8.696 100.971 8.696C100.123 8.696 99.3392 8.84 98.6192 9.128C97.9152 9.416 97.2912 9.832 96.7472 10.376C96.2192 10.904 95.8032 11.528 95.4992 12.248C95.2112 12.952 95.0672 13.736 95.0672 14.6C95.0672 15.448 95.2112 16.232 95.4992 16.952C95.8032 17.672 96.2192 18.304 96.7472 18.848C97.2752 19.376 97.8992 19.784 98.6192 20.072C99.3392 20.36 100.123 20.504 100.971 20.504ZM116.5 23V8.84H110.932V6.2H125.188V8.84H119.62V23H116.5Z" fill="white"/>
<path d="M166.891 28.4472C158.967 31.1066 152.798 38.8174 150.487 48.5111C148.157 38.8673 142.004 31.2027 134.109 28.5528C142.033 25.8934 148.202 18.1827 150.513 8.48907C152.843 18.1328 158.996 25.7973 166.891 28.4472Z" stroke="#22D4FD" stroke-width="2"/>
</svg>
